<mxfile host="Electron" modified="2024-10-02T17:23:59.747Z" agent="Mozilla/5.0 (X11; Linux x86_64) AppleWebKit/537.36 (KHTML, like Gecko) draw.io/21.6.5 Chrome/114.0.5735.243 Electron/25.3.1 Safari/537.36" etag="z7drrmBXg3391Ivx4KJY" version="21.6.5" type="device">
  <diagram id="C5RBs43oDa-KdzZeNtuy" name="Page-1">
    <mxGraphModel dx="1434" dy="873" grid="1" gridSize="10" guides="1" tooltips="1" connect="1" arrows="1" fold="1" page="1" pageScale="1" pageWidth="827" pageHeight="1169" math="0" shadow="0">
      <root>
        <mxCell id="WIyWlLk6GJQsqaUBKTNV-0" />
        <mxCell id="WIyWlLk6GJQsqaUBKTNV-1" parent="WIyWlLk6GJQsqaUBKTNV-0" />
        <mxCell id="WIyWlLk6GJQsqaUBKTNV-2" value="" style="rounded=0;html=1;jettySize=auto;orthogonalLoop=1;fontSize=11;endArrow=block;endFill=0;endSize=8;strokeWidth=1;shadow=0;labelBackgroundColor=none;edgeStyle=orthogonalEdgeStyle;" parent="WIyWlLk6GJQsqaUBKTNV-1" source="WIyWlLk6GJQsqaUBKTNV-3" target="WIyWlLk6GJQsqaUBKTNV-6" edge="1">
          <mxGeometry relative="1" as="geometry" />
        </mxCell>
        <mxCell id="WIyWlLk6GJQsqaUBKTNV-3" value="receive targetid" style="rounded=1;whiteSpace=wrap;html=1;fontSize=12;glass=0;strokeWidth=1;shadow=0;" parent="WIyWlLk6GJQsqaUBKTNV-1" vertex="1">
          <mxGeometry x="274" y="160" width="176" height="50" as="geometry" />
        </mxCell>
        <mxCell id="WIyWlLk6GJQsqaUBKTNV-6" value="End Of Image&lt;br&gt;Array ??" style="rhombus;whiteSpace=wrap;html=1;shadow=0;fontFamily=Helvetica;fontSize=12;align=center;strokeWidth=1;spacing=6;spacingTop=-4;" parent="WIyWlLk6GJQsqaUBKTNV-1" vertex="1">
          <mxGeometry x="284" y="260" width="156" height="120" as="geometry" />
        </mxCell>
        <mxCell id="vtR5zgxa-qT4p7VXqbLf-0" value="next image = indexx ++" style="rounded=1;whiteSpace=wrap;html=1;fontSize=12;glass=0;strokeWidth=1;shadow=0;" vertex="1" parent="WIyWlLk6GJQsqaUBKTNV-1">
          <mxGeometry x="274" y="1030" width="176" height="50" as="geometry" />
        </mxCell>
        <mxCell id="vtR5zgxa-qT4p7VXqbLf-1" value="current image id =&lt;br&gt;target id&lt;br&gt;???" style="rhombus;whiteSpace=wrap;html=1;shadow=0;fontFamily=Helvetica;fontSize=12;align=center;strokeWidth=1;spacing=6;spacingTop=-4;" vertex="1" parent="WIyWlLk6GJQsqaUBKTNV-1">
          <mxGeometry x="284" y="450" width="156" height="120" as="geometry" />
        </mxCell>
        <mxCell id="vtR5zgxa-qT4p7VXqbLf-2" value="increase index" style="rounded=1;whiteSpace=wrap;html=1;fontSize=12;glass=0;strokeWidth=1;shadow=0;" vertex="1" parent="WIyWlLk6GJQsqaUBKTNV-1">
          <mxGeometry x="70" y="390" width="176" height="50" as="geometry" />
        </mxCell>
        <mxCell id="vtR5zgxa-qT4p7VXqbLf-3" value="" style="endArrow=classic;html=1;rounded=0;exitX=0;exitY=0.5;exitDx=0;exitDy=0;entryX=0.5;entryY=1;entryDx=0;entryDy=0;" edge="1" parent="WIyWlLk6GJQsqaUBKTNV-1" source="vtR5zgxa-qT4p7VXqbLf-1" target="vtR5zgxa-qT4p7VXqbLf-2">
          <mxGeometry width="50" height="50" relative="1" as="geometry">
            <mxPoint x="390" y="470" as="sourcePoint" />
            <mxPoint x="440" y="420" as="targetPoint" />
            <Array as="points">
              <mxPoint x="160" y="510" />
            </Array>
          </mxGeometry>
        </mxCell>
        <mxCell id="vtR5zgxa-qT4p7VXqbLf-4" value="" style="endArrow=classic;html=1;rounded=0;entryX=0;entryY=0.5;entryDx=0;entryDy=0;exitX=0.5;exitY=0;exitDx=0;exitDy=0;" edge="1" parent="WIyWlLk6GJQsqaUBKTNV-1" source="vtR5zgxa-qT4p7VXqbLf-2" target="WIyWlLk6GJQsqaUBKTNV-6">
          <mxGeometry width="50" height="50" relative="1" as="geometry">
            <mxPoint x="390" y="470" as="sourcePoint" />
            <mxPoint x="440" y="420" as="targetPoint" />
            <Array as="points">
              <mxPoint x="160" y="320" />
            </Array>
          </mxGeometry>
        </mxCell>
        <mxCell id="vtR5zgxa-qT4p7VXqbLf-5" value="" style="endArrow=classic;html=1;rounded=0;exitX=0.5;exitY=1;exitDx=0;exitDy=0;entryX=0.5;entryY=0;entryDx=0;entryDy=0;" edge="1" parent="WIyWlLk6GJQsqaUBKTNV-1" source="WIyWlLk6GJQsqaUBKTNV-6" target="vtR5zgxa-qT4p7VXqbLf-1">
          <mxGeometry width="50" height="50" relative="1" as="geometry">
            <mxPoint x="390" y="470" as="sourcePoint" />
            <mxPoint x="440" y="420" as="targetPoint" />
          </mxGeometry>
        </mxCell>
        <UserObject label="No" placeholders="1" name="Variable" id="vtR5zgxa-qT4p7VXqbLf-6">
          <mxCell style="text;html=1;strokeColor=none;fillColor=none;align=center;verticalAlign=middle;whiteSpace=wrap;overflow=hidden;" vertex="1" parent="WIyWlLk6GJQsqaUBKTNV-1">
            <mxGeometry x="80" y="200" width="30" height="20" as="geometry" />
          </mxCell>
        </UserObject>
        <UserObject label="Yes" placeholders="1" name="Variable" id="vtR5zgxa-qT4p7VXqbLf-7">
          <mxCell style="text;html=1;strokeColor=none;fillColor=none;align=center;verticalAlign=middle;whiteSpace=wrap;overflow=hidden;" vertex="1" parent="WIyWlLk6GJQsqaUBKTNV-1">
            <mxGeometry x="166" y="200" width="34" height="20" as="geometry" />
          </mxCell>
        </UserObject>
        <UserObject label="No" placeholders="1" name="Variable" id="vtR5zgxa-qT4p7VXqbLf-8">
          <mxCell style="text;html=1;strokeColor=none;fillColor=none;align=center;verticalAlign=middle;whiteSpace=wrap;overflow=hidden;" vertex="1" parent="WIyWlLk6GJQsqaUBKTNV-1">
            <mxGeometry x="330" y="405" width="30" height="20" as="geometry" />
          </mxCell>
        </UserObject>
        <mxCell id="vtR5zgxa-qT4p7VXqbLf-9" value="" style="endArrow=classic;html=1;rounded=0;exitX=0.5;exitY=1;exitDx=0;exitDy=0;" edge="1" parent="WIyWlLk6GJQsqaUBKTNV-1" source="vtR5zgxa-qT4p7VXqbLf-1">
          <mxGeometry width="50" height="50" relative="1" as="geometry">
            <mxPoint x="390" y="470" as="sourcePoint" />
            <mxPoint x="360" y="630" as="targetPoint" />
          </mxGeometry>
        </mxCell>
        <mxCell id="vtR5zgxa-qT4p7VXqbLf-10" value="Are we looking&lt;br&gt;for Next Image ?" style="rhombus;whiteSpace=wrap;html=1;shadow=0;fontFamily=Helvetica;fontSize=12;align=center;strokeWidth=1;spacing=6;spacingTop=-4;" vertex="1" parent="WIyWlLk6GJQsqaUBKTNV-1">
          <mxGeometry x="284" y="630" width="156" height="120" as="geometry" />
        </mxCell>
        <mxCell id="vtR5zgxa-qT4p7VXqbLf-11" value="Is this the&amp;nbsp;&lt;br&gt;last image ?" style="rhombus;whiteSpace=wrap;html=1;shadow=0;fontFamily=Helvetica;fontSize=12;align=center;strokeWidth=1;spacing=6;spacingTop=-4;" vertex="1" parent="WIyWlLk6GJQsqaUBKTNV-1">
          <mxGeometry x="284" y="830" width="156" height="120" as="geometry" />
        </mxCell>
        <mxCell id="vtR5zgxa-qT4p7VXqbLf-12" value="" style="endArrow=classic;html=1;rounded=0;exitX=0.5;exitY=1;exitDx=0;exitDy=0;entryX=0.5;entryY=0;entryDx=0;entryDy=0;" edge="1" parent="WIyWlLk6GJQsqaUBKTNV-1" source="vtR5zgxa-qT4p7VXqbLf-10" target="vtR5zgxa-qT4p7VXqbLf-11">
          <mxGeometry width="50" height="50" relative="1" as="geometry">
            <mxPoint x="390" y="710" as="sourcePoint" />
            <mxPoint x="440" y="660" as="targetPoint" />
          </mxGeometry>
        </mxCell>
        <UserObject label="Yes" placeholders="1" name="Variable" id="vtR5zgxa-qT4p7VXqbLf-13">
          <mxCell style="text;html=1;strokeColor=none;fillColor=none;align=center;verticalAlign=middle;whiteSpace=wrap;overflow=hidden;" vertex="1" parent="WIyWlLk6GJQsqaUBKTNV-1">
            <mxGeometry x="320" y="590" width="34" height="20" as="geometry" />
          </mxCell>
        </UserObject>
        <UserObject label="Yes" placeholders="1" name="Variable" id="vtR5zgxa-qT4p7VXqbLf-14">
          <mxCell style="text;html=1;strokeColor=none;fillColor=none;align=center;verticalAlign=middle;whiteSpace=wrap;overflow=hidden;" vertex="1" parent="WIyWlLk6GJQsqaUBKTNV-1">
            <mxGeometry x="320" y="785" width="34" height="20" as="geometry" />
          </mxCell>
        </UserObject>
        <mxCell id="vtR5zgxa-qT4p7VXqbLf-15" value="" style="endArrow=classic;html=1;rounded=0;exitX=0.5;exitY=1;exitDx=0;exitDy=0;entryX=0.5;entryY=0;entryDx=0;entryDy=0;" edge="1" parent="WIyWlLk6GJQsqaUBKTNV-1" source="vtR5zgxa-qT4p7VXqbLf-11" target="vtR5zgxa-qT4p7VXqbLf-0">
          <mxGeometry width="50" height="50" relative="1" as="geometry">
            <mxPoint x="390" y="830" as="sourcePoint" />
            <mxPoint x="440" y="780" as="targetPoint" />
          </mxGeometry>
        </mxCell>
        <mxCell id="vtR5zgxa-qT4p7VXqbLf-16" value="image not found" style="rounded=1;whiteSpace=wrap;html=1;fontSize=12;glass=0;strokeWidth=1;shadow=0;" vertex="1" parent="WIyWlLk6GJQsqaUBKTNV-1">
          <mxGeometry x="520" y="295" width="176" height="50" as="geometry" />
        </mxCell>
        <mxCell id="vtR5zgxa-qT4p7VXqbLf-17" value="" style="endArrow=classic;html=1;rounded=0;entryX=0;entryY=0.5;entryDx=0;entryDy=0;exitX=1;exitY=0.5;exitDx=0;exitDy=0;" edge="1" parent="WIyWlLk6GJQsqaUBKTNV-1" source="WIyWlLk6GJQsqaUBKTNV-6" target="vtR5zgxa-qT4p7VXqbLf-16">
          <mxGeometry width="50" height="50" relative="1" as="geometry">
            <mxPoint x="390" y="470" as="sourcePoint" />
            <mxPoint x="440" y="420" as="targetPoint" />
          </mxGeometry>
        </mxCell>
        <UserObject label="Yes" placeholders="1" name="Variable" id="vtR5zgxa-qT4p7VXqbLf-18">
          <mxCell style="text;html=1;strokeColor=none;fillColor=none;align=center;verticalAlign=middle;whiteSpace=wrap;overflow=hidden;" vertex="1" parent="WIyWlLk6GJQsqaUBKTNV-1">
            <mxGeometry x="460" y="290" width="34" height="20" as="geometry" />
          </mxCell>
        </UserObject>
        <UserObject label="No" placeholders="1" name="Variable" id="vtR5zgxa-qT4p7VXqbLf-19">
          <mxCell style="text;html=1;strokeColor=none;fillColor=none;align=center;verticalAlign=middle;whiteSpace=wrap;overflow=hidden;" vertex="1" parent="WIyWlLk6GJQsqaUBKTNV-1">
            <mxGeometry x="240" y="490" width="30" height="20" as="geometry" />
          </mxCell>
        </UserObject>
        <UserObject label="No" placeholders="1" name="Variable" id="vtR5zgxa-qT4p7VXqbLf-20">
          <mxCell style="text;html=1;strokeColor=none;fillColor=none;align=center;verticalAlign=middle;whiteSpace=wrap;overflow=hidden;" vertex="1" parent="WIyWlLk6GJQsqaUBKTNV-1">
            <mxGeometry x="322" y="970" width="30" height="20" as="geometry" />
          </mxCell>
        </UserObject>
        <mxCell id="vtR5zgxa-qT4p7VXqbLf-21" value="Is this the&amp;nbsp;&lt;br&gt;first image ?" style="rhombus;whiteSpace=wrap;html=1;shadow=0;fontFamily=Helvetica;fontSize=12;align=center;strokeWidth=1;spacing=6;spacingTop=-4;" vertex="1" parent="WIyWlLk6GJQsqaUBKTNV-1">
          <mxGeometry x="530" y="630" width="156" height="120" as="geometry" />
        </mxCell>
        <mxCell id="vtR5zgxa-qT4p7VXqbLf-22" value="" style="endArrow=classic;html=1;rounded=0;entryX=0;entryY=0.5;entryDx=0;entryDy=0;exitX=1;exitY=0.5;exitDx=0;exitDy=0;" edge="1" parent="WIyWlLk6GJQsqaUBKTNV-1" source="vtR5zgxa-qT4p7VXqbLf-10" target="vtR5zgxa-qT4p7VXqbLf-21">
          <mxGeometry width="50" height="50" relative="1" as="geometry">
            <mxPoint x="390" y="710" as="sourcePoint" />
            <mxPoint x="440" y="660" as="targetPoint" />
          </mxGeometry>
        </mxCell>
        <UserObject label="No" placeholders="1" name="Variable" id="vtR5zgxa-qT4p7VXqbLf-23">
          <mxCell style="text;html=1;strokeColor=none;fillColor=none;align=center;verticalAlign=middle;whiteSpace=wrap;overflow=hidden;" vertex="1" parent="WIyWlLk6GJQsqaUBKTNV-1">
            <mxGeometry x="470" y="660" width="30" height="20" as="geometry" />
          </mxCell>
        </UserObject>
        <mxCell id="vtR5zgxa-qT4p7VXqbLf-24" value="next image = indexx --" style="rounded=1;whiteSpace=wrap;html=1;fontSize=12;glass=0;strokeWidth=1;shadow=0;" vertex="1" parent="WIyWlLk6GJQsqaUBKTNV-1">
          <mxGeometry x="520" y="865" width="176" height="50" as="geometry" />
        </mxCell>
        <mxCell id="vtR5zgxa-qT4p7VXqbLf-25" value="" style="endArrow=classic;html=1;rounded=0;entryX=0.5;entryY=0;entryDx=0;entryDy=0;exitX=0.5;exitY=1;exitDx=0;exitDy=0;" edge="1" parent="WIyWlLk6GJQsqaUBKTNV-1" source="vtR5zgxa-qT4p7VXqbLf-21" target="vtR5zgxa-qT4p7VXqbLf-24">
          <mxGeometry width="50" height="50" relative="1" as="geometry">
            <mxPoint x="390" y="830" as="sourcePoint" />
            <mxPoint x="440" y="780" as="targetPoint" />
          </mxGeometry>
        </mxCell>
        <UserObject label="No" placeholders="1" name="Variable" id="vtR5zgxa-qT4p7VXqbLf-26">
          <mxCell style="text;html=1;strokeColor=none;fillColor=none;align=center;verticalAlign=middle;whiteSpace=wrap;overflow=hidden;" vertex="1" parent="WIyWlLk6GJQsqaUBKTNV-1">
            <mxGeometry x="570" y="790" width="30" height="20" as="geometry" />
          </mxCell>
        </UserObject>
        <mxCell id="vtR5zgxa-qT4p7VXqbLf-27" value="At first Image message" style="rounded=1;whiteSpace=wrap;html=1;fontSize=12;glass=0;strokeWidth=1;shadow=0;" vertex="1" parent="WIyWlLk6GJQsqaUBKTNV-1">
          <mxGeometry x="770" y="665" width="176" height="50" as="geometry" />
        </mxCell>
        <mxCell id="vtR5zgxa-qT4p7VXqbLf-28" value="" style="endArrow=classic;html=1;rounded=0;entryX=0;entryY=0.5;entryDx=0;entryDy=0;exitX=1;exitY=0.5;exitDx=0;exitDy=0;" edge="1" parent="WIyWlLk6GJQsqaUBKTNV-1" source="vtR5zgxa-qT4p7VXqbLf-21" target="vtR5zgxa-qT4p7VXqbLf-27">
          <mxGeometry width="50" height="50" relative="1" as="geometry">
            <mxPoint x="390" y="710" as="sourcePoint" />
            <mxPoint x="440" y="660" as="targetPoint" />
          </mxGeometry>
        </mxCell>
        <UserObject label="Yes" placeholders="1" name="Variable" id="vtR5zgxa-qT4p7VXqbLf-29">
          <mxCell style="text;html=1;strokeColor=none;fillColor=none;align=center;verticalAlign=middle;whiteSpace=wrap;overflow=hidden;" vertex="1" parent="WIyWlLk6GJQsqaUBKTNV-1">
            <mxGeometry x="710" y="665" width="34" height="20" as="geometry" />
          </mxCell>
        </UserObject>
        <mxCell id="vtR5zgxa-qT4p7VXqbLf-30" value="At first Image message" style="rounded=1;whiteSpace=wrap;html=1;fontSize=12;glass=0;strokeWidth=1;shadow=0;" vertex="1" parent="WIyWlLk6GJQsqaUBKTNV-1">
          <mxGeometry x="40" y="865" width="176" height="50" as="geometry" />
        </mxCell>
        <mxCell id="vtR5zgxa-qT4p7VXqbLf-31" value="" style="endArrow=classic;html=1;rounded=0;exitX=0;exitY=0.5;exitDx=0;exitDy=0;entryX=1;entryY=0.5;entryDx=0;entryDy=0;" edge="1" parent="WIyWlLk6GJQsqaUBKTNV-1" source="vtR5zgxa-qT4p7VXqbLf-11" target="vtR5zgxa-qT4p7VXqbLf-30">
          <mxGeometry width="50" height="50" relative="1" as="geometry">
            <mxPoint x="390" y="830" as="sourcePoint" />
            <mxPoint x="440" y="780" as="targetPoint" />
          </mxGeometry>
        </mxCell>
        <UserObject label="Yes" placeholders="1" name="Variable" id="vtR5zgxa-qT4p7VXqbLf-32">
          <mxCell style="text;html=1;strokeColor=none;fillColor=none;align=center;verticalAlign=middle;whiteSpace=wrap;overflow=hidden;" vertex="1" parent="WIyWlLk6GJQsqaUBKTNV-1">
            <mxGeometry x="236" y="865" width="34" height="20" as="geometry" />
          </mxCell>
        </UserObject>
        <mxCell id="vtR5zgxa-qT4p7VXqbLf-33" value="" style="rounded=0;html=1;jettySize=auto;orthogonalLoop=1;fontSize=11;endArrow=block;endFill=0;endSize=8;strokeWidth=1;shadow=0;labelBackgroundColor=none;edgeStyle=orthogonalEdgeStyle;" edge="1" parent="WIyWlLk6GJQsqaUBKTNV-1" source="vtR5zgxa-qT4p7VXqbLf-34" target="vtR5zgxa-qT4p7VXqbLf-35">
          <mxGeometry relative="1" as="geometry" />
        </mxCell>
        <mxCell id="vtR5zgxa-qT4p7VXqbLf-34" value="receive targetid" style="rounded=1;whiteSpace=wrap;html=1;fontSize=12;glass=0;strokeWidth=1;shadow=0;" vertex="1" parent="WIyWlLk6GJQsqaUBKTNV-1">
          <mxGeometry x="304" y="1370" width="176" height="50" as="geometry" />
        </mxCell>
        <mxCell id="vtR5zgxa-qT4p7VXqbLf-35" value="End Of Image&lt;br&gt;Array ??" style="rhombus;whiteSpace=wrap;html=1;shadow=0;fontFamily=Helvetica;fontSize=12;align=center;strokeWidth=1;spacing=6;spacingTop=-4;" vertex="1" parent="WIyWlLk6GJQsqaUBKTNV-1">
          <mxGeometry x="314" y="1470" width="156" height="120" as="geometry" />
        </mxCell>
        <mxCell id="vtR5zgxa-qT4p7VXqbLf-36" value="next image = indexx ++" style="rounded=1;whiteSpace=wrap;html=1;fontSize=12;glass=0;strokeWidth=1;shadow=0;" vertex="1" parent="WIyWlLk6GJQsqaUBKTNV-1">
          <mxGeometry x="304" y="2040" width="176" height="50" as="geometry" />
        </mxCell>
        <mxCell id="vtR5zgxa-qT4p7VXqbLf-37" value="current image id =&lt;br&gt;target id&lt;br&gt;???" style="rhombus;whiteSpace=wrap;html=1;shadow=0;fontFamily=Helvetica;fontSize=12;align=center;strokeWidth=1;spacing=6;spacingTop=-4;" vertex="1" parent="WIyWlLk6GJQsqaUBKTNV-1">
          <mxGeometry x="314" y="1660" width="156" height="120" as="geometry" />
        </mxCell>
        <mxCell id="vtR5zgxa-qT4p7VXqbLf-38" value="increase index" style="rounded=1;whiteSpace=wrap;html=1;fontSize=12;glass=0;strokeWidth=1;shadow=0;" vertex="1" parent="WIyWlLk6GJQsqaUBKTNV-1">
          <mxGeometry x="100" y="1600" width="176" height="50" as="geometry" />
        </mxCell>
        <mxCell id="vtR5zgxa-qT4p7VXqbLf-39" value="" style="endArrow=classic;html=1;rounded=0;exitX=0;exitY=0.5;exitDx=0;exitDy=0;entryX=0.5;entryY=1;entryDx=0;entryDy=0;" edge="1" parent="WIyWlLk6GJQsqaUBKTNV-1" source="vtR5zgxa-qT4p7VXqbLf-37" target="vtR5zgxa-qT4p7VXqbLf-38">
          <mxGeometry width="50" height="50" relative="1" as="geometry">
            <mxPoint x="420" y="1680" as="sourcePoint" />
            <mxPoint x="470" y="1630" as="targetPoint" />
            <Array as="points">
              <mxPoint x="190" y="1720" />
            </Array>
          </mxGeometry>
        </mxCell>
        <mxCell id="vtR5zgxa-qT4p7VXqbLf-40" value="" style="endArrow=classic;html=1;rounded=0;entryX=0;entryY=0.5;entryDx=0;entryDy=0;exitX=0.5;exitY=0;exitDx=0;exitDy=0;" edge="1" parent="WIyWlLk6GJQsqaUBKTNV-1" source="vtR5zgxa-qT4p7VXqbLf-38" target="vtR5zgxa-qT4p7VXqbLf-35">
          <mxGeometry width="50" height="50" relative="1" as="geometry">
            <mxPoint x="420" y="1680" as="sourcePoint" />
            <mxPoint x="470" y="1630" as="targetPoint" />
            <Array as="points">
              <mxPoint x="190" y="1530" />
            </Array>
          </mxGeometry>
        </mxCell>
        <mxCell id="vtR5zgxa-qT4p7VXqbLf-41" value="" style="endArrow=classic;html=1;rounded=0;exitX=0.5;exitY=1;exitDx=0;exitDy=0;entryX=0.5;entryY=0;entryDx=0;entryDy=0;" edge="1" parent="WIyWlLk6GJQsqaUBKTNV-1" source="vtR5zgxa-qT4p7VXqbLf-35" target="vtR5zgxa-qT4p7VXqbLf-37">
          <mxGeometry width="50" height="50" relative="1" as="geometry">
            <mxPoint x="420" y="1680" as="sourcePoint" />
            <mxPoint x="470" y="1630" as="targetPoint" />
          </mxGeometry>
        </mxCell>
        <UserObject label="No" placeholders="1" name="Variable" id="vtR5zgxa-qT4p7VXqbLf-42">
          <mxCell style="text;html=1;strokeColor=none;fillColor=none;align=center;verticalAlign=middle;whiteSpace=wrap;overflow=hidden;" vertex="1" parent="WIyWlLk6GJQsqaUBKTNV-1">
            <mxGeometry x="110" y="1410" width="30" height="20" as="geometry" />
          </mxCell>
        </UserObject>
        <UserObject label="Yes" placeholders="1" name="Variable" id="vtR5zgxa-qT4p7VXqbLf-43">
          <mxCell style="text;html=1;strokeColor=none;fillColor=none;align=center;verticalAlign=middle;whiteSpace=wrap;overflow=hidden;" vertex="1" parent="WIyWlLk6GJQsqaUBKTNV-1">
            <mxGeometry x="196" y="1410" width="34" height="20" as="geometry" />
          </mxCell>
        </UserObject>
        <UserObject label="No" placeholders="1" name="Variable" id="vtR5zgxa-qT4p7VXqbLf-44">
          <mxCell style="text;html=1;strokeColor=none;fillColor=none;align=center;verticalAlign=middle;whiteSpace=wrap;overflow=hidden;" vertex="1" parent="WIyWlLk6GJQsqaUBKTNV-1">
            <mxGeometry x="360" y="1615" width="30" height="20" as="geometry" />
          </mxCell>
        </UserObject>
        <mxCell id="vtR5zgxa-qT4p7VXqbLf-45" value="" style="endArrow=classic;html=1;rounded=0;exitX=0.5;exitY=1;exitDx=0;exitDy=0;" edge="1" parent="WIyWlLk6GJQsqaUBKTNV-1" source="vtR5zgxa-qT4p7VXqbLf-37">
          <mxGeometry width="50" height="50" relative="1" as="geometry">
            <mxPoint x="420" y="1680" as="sourcePoint" />
            <mxPoint x="390" y="1840" as="targetPoint" />
          </mxGeometry>
        </mxCell>
        <mxCell id="vtR5zgxa-qT4p7VXqbLf-47" value="Is this the&amp;nbsp;&lt;br&gt;last image ?" style="rhombus;whiteSpace=wrap;html=1;shadow=0;fontFamily=Helvetica;fontSize=12;align=center;strokeWidth=1;spacing=6;spacingTop=-4;" vertex="1" parent="WIyWlLk6GJQsqaUBKTNV-1">
          <mxGeometry x="314" y="1840" width="156" height="120" as="geometry" />
        </mxCell>
        <UserObject label="Yes" placeholders="1" name="Variable" id="vtR5zgxa-qT4p7VXqbLf-49">
          <mxCell style="text;html=1;strokeColor=none;fillColor=none;align=center;verticalAlign=middle;whiteSpace=wrap;overflow=hidden;" vertex="1" parent="WIyWlLk6GJQsqaUBKTNV-1">
            <mxGeometry x="350" y="1800" width="34" height="20" as="geometry" />
          </mxCell>
        </UserObject>
        <mxCell id="vtR5zgxa-qT4p7VXqbLf-51" value="" style="endArrow=classic;html=1;rounded=0;exitX=0.5;exitY=1;exitDx=0;exitDy=0;entryX=0.5;entryY=0;entryDx=0;entryDy=0;" edge="1" parent="WIyWlLk6GJQsqaUBKTNV-1" source="vtR5zgxa-qT4p7VXqbLf-47" target="vtR5zgxa-qT4p7VXqbLf-36">
          <mxGeometry width="50" height="50" relative="1" as="geometry">
            <mxPoint x="420" y="2040" as="sourcePoint" />
            <mxPoint x="470" y="1990" as="targetPoint" />
          </mxGeometry>
        </mxCell>
        <mxCell id="vtR5zgxa-qT4p7VXqbLf-52" value="image not found" style="rounded=1;whiteSpace=wrap;html=1;fontSize=12;glass=0;strokeWidth=1;shadow=0;" vertex="1" parent="WIyWlLk6GJQsqaUBKTNV-1">
          <mxGeometry x="550" y="1505" width="176" height="50" as="geometry" />
        </mxCell>
        <mxCell id="vtR5zgxa-qT4p7VXqbLf-53" value="" style="endArrow=classic;html=1;rounded=0;entryX=0;entryY=0.5;entryDx=0;entryDy=0;exitX=1;exitY=0.5;exitDx=0;exitDy=0;" edge="1" parent="WIyWlLk6GJQsqaUBKTNV-1" source="vtR5zgxa-qT4p7VXqbLf-35" target="vtR5zgxa-qT4p7VXqbLf-52">
          <mxGeometry width="50" height="50" relative="1" as="geometry">
            <mxPoint x="420" y="1680" as="sourcePoint" />
            <mxPoint x="470" y="1630" as="targetPoint" />
          </mxGeometry>
        </mxCell>
        <UserObject label="Yes" placeholders="1" name="Variable" id="vtR5zgxa-qT4p7VXqbLf-54">
          <mxCell style="text;html=1;strokeColor=none;fillColor=none;align=center;verticalAlign=middle;whiteSpace=wrap;overflow=hidden;" vertex="1" parent="WIyWlLk6GJQsqaUBKTNV-1">
            <mxGeometry x="490" y="1500" width="34" height="20" as="geometry" />
          </mxCell>
        </UserObject>
        <UserObject label="No" placeholders="1" name="Variable" id="vtR5zgxa-qT4p7VXqbLf-55">
          <mxCell style="text;html=1;strokeColor=none;fillColor=none;align=center;verticalAlign=middle;whiteSpace=wrap;overflow=hidden;" vertex="1" parent="WIyWlLk6GJQsqaUBKTNV-1">
            <mxGeometry x="270" y="1700" width="30" height="20" as="geometry" />
          </mxCell>
        </UserObject>
        <UserObject label="No" placeholders="1" name="Variable" id="vtR5zgxa-qT4p7VXqbLf-56">
          <mxCell style="text;html=1;strokeColor=none;fillColor=none;align=center;verticalAlign=middle;whiteSpace=wrap;overflow=hidden;" vertex="1" parent="WIyWlLk6GJQsqaUBKTNV-1">
            <mxGeometry x="354" y="1980" width="30" height="20" as="geometry" />
          </mxCell>
        </UserObject>
        <mxCell id="vtR5zgxa-qT4p7VXqbLf-66" value="At last Image message" style="rounded=1;whiteSpace=wrap;html=1;fontSize=12;glass=0;strokeWidth=1;shadow=0;" vertex="1" parent="WIyWlLk6GJQsqaUBKTNV-1">
          <mxGeometry x="90" y="1875" width="176" height="50" as="geometry" />
        </mxCell>
        <mxCell id="vtR5zgxa-qT4p7VXqbLf-67" value="" style="endArrow=classic;html=1;rounded=0;exitX=0;exitY=0.5;exitDx=0;exitDy=0;entryX=1;entryY=0.5;entryDx=0;entryDy=0;" edge="1" parent="WIyWlLk6GJQsqaUBKTNV-1" source="vtR5zgxa-qT4p7VXqbLf-47" target="vtR5zgxa-qT4p7VXqbLf-66">
          <mxGeometry width="50" height="50" relative="1" as="geometry">
            <mxPoint x="420" y="2040" as="sourcePoint" />
            <mxPoint x="470" y="1990" as="targetPoint" />
          </mxGeometry>
        </mxCell>
        <UserObject label="Yes" placeholders="1" name="Variable" id="vtR5zgxa-qT4p7VXqbLf-68">
          <mxCell style="text;html=1;strokeColor=none;fillColor=none;align=center;verticalAlign=middle;whiteSpace=wrap;overflow=hidden;" vertex="1" parent="WIyWlLk6GJQsqaUBKTNV-1">
            <mxGeometry x="280" y="1875" width="34" height="20" as="geometry" />
          </mxCell>
        </UserObject>
        <mxCell id="vtR5zgxa-qT4p7VXqbLf-69" value="" style="rounded=0;html=1;jettySize=auto;orthogonalLoop=1;fontSize=11;endArrow=block;endFill=0;endSize=8;strokeWidth=1;shadow=0;labelBackgroundColor=none;edgeStyle=orthogonalEdgeStyle;" edge="1" parent="WIyWlLk6GJQsqaUBKTNV-1" source="vtR5zgxa-qT4p7VXqbLf-70" target="vtR5zgxa-qT4p7VXqbLf-71">
          <mxGeometry relative="1" as="geometry" />
        </mxCell>
        <mxCell id="vtR5zgxa-qT4p7VXqbLf-70" value="receive targetid" style="rounded=1;whiteSpace=wrap;html=1;fontSize=12;glass=0;strokeWidth=1;shadow=0;" vertex="1" parent="WIyWlLk6GJQsqaUBKTNV-1">
          <mxGeometry x="1764" y="1660" width="176" height="50" as="geometry" />
        </mxCell>
        <mxCell id="vtR5zgxa-qT4p7VXqbLf-71" value="End Of Image&lt;br&gt;Array ??" style="rhombus;whiteSpace=wrap;html=1;shadow=0;fontFamily=Helvetica;fontSize=12;align=center;strokeWidth=1;spacing=6;spacingTop=-4;" vertex="1" parent="WIyWlLk6GJQsqaUBKTNV-1">
          <mxGeometry x="1774" y="1760" width="156" height="120" as="geometry" />
        </mxCell>
        <mxCell id="vtR5zgxa-qT4p7VXqbLf-73" value="current image id =&lt;br&gt;target id&lt;br&gt;???" style="rhombus;whiteSpace=wrap;html=1;shadow=0;fontFamily=Helvetica;fontSize=12;align=center;strokeWidth=1;spacing=6;spacingTop=-4;" vertex="1" parent="WIyWlLk6GJQsqaUBKTNV-1">
          <mxGeometry x="1774" y="1950" width="156" height="120" as="geometry" />
        </mxCell>
        <mxCell id="vtR5zgxa-qT4p7VXqbLf-74" value="increase index" style="rounded=1;whiteSpace=wrap;html=1;fontSize=12;glass=0;strokeWidth=1;shadow=0;" vertex="1" parent="WIyWlLk6GJQsqaUBKTNV-1">
          <mxGeometry x="1560" y="1890" width="176" height="50" as="geometry" />
        </mxCell>
        <mxCell id="vtR5zgxa-qT4p7VXqbLf-75" value="" style="endArrow=classic;html=1;rounded=0;exitX=0;exitY=0.5;exitDx=0;exitDy=0;entryX=0.5;entryY=1;entryDx=0;entryDy=0;" edge="1" parent="WIyWlLk6GJQsqaUBKTNV-1" source="vtR5zgxa-qT4p7VXqbLf-73" target="vtR5zgxa-qT4p7VXqbLf-74">
          <mxGeometry width="50" height="50" relative="1" as="geometry">
            <mxPoint x="1880" y="1970" as="sourcePoint" />
            <mxPoint x="1930" y="1920" as="targetPoint" />
            <Array as="points">
              <mxPoint x="1650" y="2010" />
            </Array>
          </mxGeometry>
        </mxCell>
        <mxCell id="vtR5zgxa-qT4p7VXqbLf-76" value="" style="endArrow=classic;html=1;rounded=0;entryX=0;entryY=0.5;entryDx=0;entryDy=0;exitX=0.5;exitY=0;exitDx=0;exitDy=0;" edge="1" parent="WIyWlLk6GJQsqaUBKTNV-1" source="vtR5zgxa-qT4p7VXqbLf-74" target="vtR5zgxa-qT4p7VXqbLf-71">
          <mxGeometry width="50" height="50" relative="1" as="geometry">
            <mxPoint x="1880" y="1970" as="sourcePoint" />
            <mxPoint x="1930" y="1920" as="targetPoint" />
            <Array as="points">
              <mxPoint x="1650" y="1820" />
            </Array>
          </mxGeometry>
        </mxCell>
        <mxCell id="vtR5zgxa-qT4p7VXqbLf-77" value="" style="endArrow=classic;html=1;rounded=0;exitX=0.5;exitY=1;exitDx=0;exitDy=0;entryX=0.5;entryY=0;entryDx=0;entryDy=0;" edge="1" parent="WIyWlLk6GJQsqaUBKTNV-1" source="vtR5zgxa-qT4p7VXqbLf-71" target="vtR5zgxa-qT4p7VXqbLf-73">
          <mxGeometry width="50" height="50" relative="1" as="geometry">
            <mxPoint x="1880" y="1970" as="sourcePoint" />
            <mxPoint x="1930" y="1920" as="targetPoint" />
          </mxGeometry>
        </mxCell>
        <UserObject label="No" placeholders="1" name="Variable" id="vtR5zgxa-qT4p7VXqbLf-78">
          <mxCell style="text;html=1;strokeColor=none;fillColor=none;align=center;verticalAlign=middle;whiteSpace=wrap;overflow=hidden;" vertex="1" parent="WIyWlLk6GJQsqaUBKTNV-1">
            <mxGeometry x="1570" y="1700" width="30" height="20" as="geometry" />
          </mxCell>
        </UserObject>
        <UserObject label="Yes" placeholders="1" name="Variable" id="vtR5zgxa-qT4p7VXqbLf-79">
          <mxCell style="text;html=1;strokeColor=none;fillColor=none;align=center;verticalAlign=middle;whiteSpace=wrap;overflow=hidden;" vertex="1" parent="WIyWlLk6GJQsqaUBKTNV-1">
            <mxGeometry x="1656" y="1700" width="34" height="20" as="geometry" />
          </mxCell>
        </UserObject>
        <UserObject label="No" placeholders="1" name="Variable" id="vtR5zgxa-qT4p7VXqbLf-80">
          <mxCell style="text;html=1;strokeColor=none;fillColor=none;align=center;verticalAlign=middle;whiteSpace=wrap;overflow=hidden;" vertex="1" parent="WIyWlLk6GJQsqaUBKTNV-1">
            <mxGeometry x="1820" y="1905" width="30" height="20" as="geometry" />
          </mxCell>
        </UserObject>
        <mxCell id="vtR5zgxa-qT4p7VXqbLf-81" value="" style="endArrow=classic;html=1;rounded=0;exitX=0.5;exitY=1;exitDx=0;exitDy=0;entryX=0.5;entryY=0;entryDx=0;entryDy=0;" edge="1" parent="WIyWlLk6GJQsqaUBKTNV-1" source="vtR5zgxa-qT4p7VXqbLf-73" target="vtR5zgxa-qT4p7VXqbLf-93">
          <mxGeometry width="50" height="50" relative="1" as="geometry">
            <mxPoint x="1880" y="1970" as="sourcePoint" />
            <mxPoint x="2000" y="2100" as="targetPoint" />
          </mxGeometry>
        </mxCell>
        <UserObject label="Yes" placeholders="1" name="Variable" id="vtR5zgxa-qT4p7VXqbLf-85">
          <mxCell style="text;html=1;strokeColor=none;fillColor=none;align=center;verticalAlign=middle;whiteSpace=wrap;overflow=hidden;" vertex="1" parent="WIyWlLk6GJQsqaUBKTNV-1">
            <mxGeometry x="1810" y="2090" width="34" height="20" as="geometry" />
          </mxCell>
        </UserObject>
        <mxCell id="vtR5zgxa-qT4p7VXqbLf-88" value="image not found" style="rounded=1;whiteSpace=wrap;html=1;fontSize=12;glass=0;strokeWidth=1;shadow=0;" vertex="1" parent="WIyWlLk6GJQsqaUBKTNV-1">
          <mxGeometry x="2010" y="1795" width="176" height="50" as="geometry" />
        </mxCell>
        <mxCell id="vtR5zgxa-qT4p7VXqbLf-89" value="" style="endArrow=classic;html=1;rounded=0;entryX=0;entryY=0.5;entryDx=0;entryDy=0;exitX=1;exitY=0.5;exitDx=0;exitDy=0;" edge="1" parent="WIyWlLk6GJQsqaUBKTNV-1" source="vtR5zgxa-qT4p7VXqbLf-71" target="vtR5zgxa-qT4p7VXqbLf-88">
          <mxGeometry width="50" height="50" relative="1" as="geometry">
            <mxPoint x="1880" y="1970" as="sourcePoint" />
            <mxPoint x="1930" y="1920" as="targetPoint" />
          </mxGeometry>
        </mxCell>
        <UserObject label="Yes" placeholders="1" name="Variable" id="vtR5zgxa-qT4p7VXqbLf-90">
          <mxCell style="text;html=1;strokeColor=none;fillColor=none;align=center;verticalAlign=middle;whiteSpace=wrap;overflow=hidden;" vertex="1" parent="WIyWlLk6GJQsqaUBKTNV-1">
            <mxGeometry x="1950" y="1790" width="34" height="20" as="geometry" />
          </mxCell>
        </UserObject>
        <UserObject label="No" placeholders="1" name="Variable" id="vtR5zgxa-qT4p7VXqbLf-91">
          <mxCell style="text;html=1;strokeColor=none;fillColor=none;align=center;verticalAlign=middle;whiteSpace=wrap;overflow=hidden;" vertex="1" parent="WIyWlLk6GJQsqaUBKTNV-1">
            <mxGeometry x="1730" y="1990" width="30" height="20" as="geometry" />
          </mxCell>
        </UserObject>
        <mxCell id="vtR5zgxa-qT4p7VXqbLf-93" value="Is this the&amp;nbsp;&lt;br&gt;first image ?" style="rhombus;whiteSpace=wrap;html=1;shadow=0;fontFamily=Helvetica;fontSize=12;align=center;strokeWidth=1;spacing=6;spacingTop=-4;" vertex="1" parent="WIyWlLk6GJQsqaUBKTNV-1">
          <mxGeometry x="1774" y="2130" width="156" height="120" as="geometry" />
        </mxCell>
        <mxCell id="vtR5zgxa-qT4p7VXqbLf-96" value="next image = indexx --" style="rounded=1;whiteSpace=wrap;html=1;fontSize=12;glass=0;strokeWidth=1;shadow=0;" vertex="1" parent="WIyWlLk6GJQsqaUBKTNV-1">
          <mxGeometry x="1764" y="2365" width="176" height="50" as="geometry" />
        </mxCell>
        <mxCell id="vtR5zgxa-qT4p7VXqbLf-97" value="" style="endArrow=classic;html=1;rounded=0;entryX=0.5;entryY=0;entryDx=0;entryDy=0;exitX=0.5;exitY=1;exitDx=0;exitDy=0;" edge="1" parent="WIyWlLk6GJQsqaUBKTNV-1" source="vtR5zgxa-qT4p7VXqbLf-93" target="vtR5zgxa-qT4p7VXqbLf-96">
          <mxGeometry width="50" height="50" relative="1" as="geometry">
            <mxPoint x="1640" y="2330" as="sourcePoint" />
            <mxPoint x="1690" y="2280" as="targetPoint" />
          </mxGeometry>
        </mxCell>
        <UserObject label="No" placeholders="1" name="Variable" id="vtR5zgxa-qT4p7VXqbLf-98">
          <mxCell style="text;html=1;strokeColor=none;fillColor=none;align=center;verticalAlign=middle;whiteSpace=wrap;overflow=hidden;" vertex="1" parent="WIyWlLk6GJQsqaUBKTNV-1">
            <mxGeometry x="1820" y="2290" width="30" height="20" as="geometry" />
          </mxCell>
        </UserObject>
        <mxCell id="vtR5zgxa-qT4p7VXqbLf-99" value="At first Image message" style="rounded=1;whiteSpace=wrap;html=1;fontSize=12;glass=0;strokeWidth=1;shadow=0;" vertex="1" parent="WIyWlLk6GJQsqaUBKTNV-1">
          <mxGeometry x="1540" y="2165" width="176" height="50" as="geometry" />
        </mxCell>
        <mxCell id="vtR5zgxa-qT4p7VXqbLf-100" value="" style="endArrow=classic;html=1;rounded=0;entryX=1;entryY=0.5;entryDx=0;entryDy=0;exitX=0;exitY=0.5;exitDx=0;exitDy=0;" edge="1" parent="WIyWlLk6GJQsqaUBKTNV-1" source="vtR5zgxa-qT4p7VXqbLf-93" target="vtR5zgxa-qT4p7VXqbLf-99">
          <mxGeometry width="50" height="50" relative="1" as="geometry">
            <mxPoint x="1640" y="2210" as="sourcePoint" />
            <mxPoint x="1690" y="2160" as="targetPoint" />
          </mxGeometry>
        </mxCell>
        <UserObject label="Yes" placeholders="1" name="Variable" id="vtR5zgxa-qT4p7VXqbLf-101">
          <mxCell style="text;html=1;strokeColor=none;fillColor=none;align=center;verticalAlign=middle;whiteSpace=wrap;overflow=hidden;" vertex="1" parent="WIyWlLk6GJQsqaUBKTNV-1">
            <mxGeometry x="1730" y="2165" width="34" height="20" as="geometry" />
          </mxCell>
        </UserObject>
        <mxCell id="vtR5zgxa-qT4p7VXqbLf-106" value="Next Image" style="text;html=1;strokeColor=none;fillColor=none;align=center;verticalAlign=middle;whiteSpace=wrap;rounded=0;" vertex="1" parent="WIyWlLk6GJQsqaUBKTNV-1">
          <mxGeometry x="214" y="1250" width="136" height="60" as="geometry" />
        </mxCell>
        <mxCell id="vtR5zgxa-qT4p7VXqbLf-107" value="Previous Image" style="text;html=1;strokeColor=none;fillColor=none;align=center;verticalAlign=middle;whiteSpace=wrap;rounded=0;" vertex="1" parent="WIyWlLk6GJQsqaUBKTNV-1">
          <mxGeometry x="1782" y="1550" width="140" height="30" as="geometry" />
        </mxCell>
      </root>
    </mxGraphModel>
  </diagram>
</mxfile>
